<?xml version="1.0" encoding="UTF-8" standalone="no"?>
<!-- Created with Inkscape (http://www.inkscape.org/) -->

<svg
   xmlns:osb="http://www.openswatchbook.org/uri/2009/osb"
   xmlns:dc="http://purl.org/dc/elements/1.1/"
   xmlns:cc="http://creativecommons.org/ns#"
   xmlns:rdf="http://www.w3.org/1999/02/22-rdf-syntax-ns#"
   xmlns:svg="http://www.w3.org/2000/svg"
   xmlns="http://www.w3.org/2000/svg"
   xmlns:sodipodi="http://sodipodi.sourceforge.net/DTD/sodipodi-0.dtd"
   xmlns:inkscape="http://www.inkscape.org/namespaces/inkscape"
   width="200mm"
   height="200mm"
   viewBox="0 0 200 200"
   version="1.1"
   id="svg8"
   sodipodi:docname="PyBaDELogoWhite.svg"
   inkscape:version="0.92.1 r15371">
  <defs
     id="defs2">
    <linearGradient
       id="linearGradient4637"
       osb:paint="solid">
      <stop
         style="stop-color:#0796ff;stop-opacity:1;"
         offset="0"
         id="stop4635" />
    </linearGradient>
  </defs>
  <sodipodi:namedview
     id="base"
     pagecolor="#ffffff"
     bordercolor="#666666"
     borderopacity="1.0"
     inkscape:pageopacity="0.0"
     inkscape:pageshadow="2"
     inkscape:zoom="0.35"
     inkscape:cx="766.16498"
     inkscape:cy="415.49942"
     inkscape:document-units="mm"
     inkscape:current-layer="layer1"
     showgrid="false"
     inkscape:window-width="1366"
     inkscape:window-height="706"
     inkscape:window-x="-8"
     inkscape:window-y="-8"
     inkscape:window-maximized="1" />
  <metadata
     id="metadata5">
    <rdf:RDF>
      <cc:Work
         rdf:about="">
        <dc:format>image/svg+xml</dc:format>
        <dc:type
           rdf:resource="http://purl.org/dc/dcmitype/StillImage" />
        <dc:title></dc:title>
      </cc:Work>
    </rdf:RDF>
  </metadata>
  <g
     inkscape:label="Layer 1"
     inkscape:groupmode="layer"
     id="layer1"
     transform="translate(0,-97)">
    <path
       style="fill:#ffffff;fill-opacity:1;stroke:#464646;stroke-width:1;stroke-linecap:round;stroke-miterlimit:4;stroke-dasharray:none;stroke-opacity:1"
       d="m 101.4714,118.57417 a 79,79 0 0 0 -80.501544,77.33275 79,79 0 0 0 77.19631,80.63229 l 0.53383,0.0103 A 79,79 0 0 0 178.94005,198.94495 79,79 0 0 0 101.4714,118.57414 Z m -0.0574,2.9993 a 75.999998,75.999998 0 0 1 74.52672,77.31932 75.999998,75.999998 0 0 1 -77.193224,74.65693 l -0.51366,-0.01 A 75.999998,75.999998 0 0 1 23.969106,195.96926 75.999998,75.999998 0 0 1 101.414,121.57328 Z"
       id="path4643"
       inkscape:connector-curvature="0" />
    <g
       transform="matrix(0.07586918,0,0,-0.0773323,77.301385,171.42424)"
       inkscape:label="server"
       id="g7178-1-4-0"
       style="stroke:#464646;stroke-opacity:0.98481003">
      <g
         id="g7180-6-31-3"
         transform="matrix(1.4528399,0,0,1.3885768,-147.00905,-109.77478)"
         style="stroke:#464646;stroke-opacity:0.98481003">
        <g
           style="fill:#ffffff;fill-opacity:0.99497483;stroke:#464646;stroke-opacity:0.98481003"
           transform="matrix(1,0,0,-1,0,841.88977)"
           id="g7182-95-8-6">
          <path
             inkscape:connector-curvature="0"
             id="path7184-0-06-0"
             style="fill:#ffffff;fill-opacity:0.99497483;stroke:#464646;stroke-width:11.33858299;stroke-linecap:butt;stroke-linejoin:round;stroke-miterlimit:4;stroke-dasharray:none;stroke-opacity:0.98481003"
             d="M 32.469,156.809 H 565.082 V 622.688 H 32.469 Z" />
        </g>
        <g
           transform="matrix(1,0,0,-1,0,841.88977)"
           id="g7186-2-1-5"
           style="stroke:#464646;stroke-opacity:0.98481003">
          <path
             inkscape:connector-curvature="0"
             id="path7188-8-4-3"
             style="fill:none;stroke:#464646;stroke-width:10.41550636;stroke-linecap:round;stroke-linejoin:miter;stroke-miterlimit:4;stroke-dasharray:none;stroke-opacity:0.98481003"
             d="M 385.285,209.746 H 517.277" />
        </g>
        <g
           transform="matrix(1,0,0,-1,0,841.88977)"
           id="g7190-8-8-5"
           style="stroke:#464646;stroke-opacity:0.98481003">
          <path
             inkscape:connector-curvature="0"
             id="path7192-0-7-9"
             style="fill:none;stroke:#464646;stroke-width:10.41550636;stroke-linecap:round;stroke-linejoin:miter;stroke-miterlimit:4;stroke-dasharray:none;stroke-opacity:0.98481003"
             d="M 386.613,259.031 H 518.605" />
        </g>
        <g
           transform="matrix(1,0,0,-1,0,841.88977)"
           id="g7194-0-2-2"
           style="stroke:#464646;stroke-opacity:0.98481003">
          <path
             inkscape:connector-curvature="0"
             id="path7196-4-0-3"
             style="fill:none;stroke:#464646;stroke-width:10.41550636;stroke-linecap:round;stroke-linejoin:miter;stroke-miterlimit:4;stroke-dasharray:none;stroke-opacity:0.98481003"
             d="M 386.613,308.316 H 518.605" />
        </g>
        <g
           transform="matrix(1,0,0,-1,0,841.88977)"
           id="g7198-6-9-1"
           style="stroke:#464646;stroke-opacity:0.98481003">
          <path
             inkscape:connector-curvature="0"
             id="path7200-1-1-3"
             style="fill:none;stroke:#464646;stroke-width:10.41550636;stroke-linecap:round;stroke-linejoin:miter;stroke-miterlimit:4;stroke-dasharray:none;stroke-opacity:0.98481003"
             d="M 76.91,211.891 H 208.906" />
        </g>
        <g
           transform="matrix(1,0,0,-1,0,841.88977)"
           id="g7202-9-4-9"
           style="stroke:#464646;stroke-opacity:0.98481003">
          <path
             inkscape:connector-curvature="0"
             id="path7204-4-11-7"
             style="fill:none;stroke:#464646;stroke-width:10.41550636;stroke-linecap:round;stroke-linejoin:miter;stroke-miterlimit:4;stroke-dasharray:none;stroke-opacity:0.98481003"
             d="M 78.238,261.176 H 210.234" />
        </g>
        <g
           transform="matrix(1,0,0,-1,0,841.88977)"
           id="g7206-8-33-4"
           style="stroke:#464646;stroke-opacity:0.98481003">
          <path
             inkscape:connector-curvature="0"
             id="path7208-05-6-8"
             style="fill:none;stroke:#464646;stroke-width:10.41550636;stroke-linecap:round;stroke-linejoin:miter;stroke-miterlimit:4;stroke-dasharray:none;stroke-opacity:0.98481003"
             d="M 78.238,310.461 H 210.234" />
        </g>
        <path
           inkscape:connector-curvature="0"
           id="path7210-4-8-1"
           style="fill:#000000;fill-opacity:0.80392199;fill-rule:nonzero;stroke:#464646;stroke-opacity:0.98481003"
           d="m 549.195,659.999 c 0,-6.262 -5.074,-11.336 -11.34,-11.336 -6.261,0 -11.335,5.074 -11.335,11.336 0,6.262 5.074,11.34 11.335,11.34 6.266,0 11.34,-5.078 11.34,-11.34 z" />
        <g
           transform="matrix(1,0,0,-1,0,841.88977)"
           id="g7212-0-52-2"
           style="stroke:#464646;stroke-opacity:0.98481003">
          <path
             inkscape:connector-curvature="0"
             id="path7214-0-51-3"
             style="fill:#ffffff;fill-opacity:1;fill-rule:nonzero;stroke:#464646;stroke-width:11.33858299;stroke-linecap:butt;stroke-linejoin:round;stroke-miterlimit:4;stroke-dasharray:none;stroke-opacity:0.98481003"
             d="m 176.785,100.461 h 246.43 v 570 h -246.43 z" />
        </g>
        <g
           transform="matrix(1,0,0,-1,0,841.88977)"
           id="g7216-7-8-2"
           style="stroke:#464646;stroke-opacity:0.98481003">
          <path
             inkscape:connector-curvature="0"
             id="path7218-32-2-9"
             style="fill:none;stroke:#464646;stroke-width:10.41550636;stroke-linecap:round;stroke-linejoin:miter;stroke-miterlimit:4;stroke-dasharray:none;stroke-opacity:0.98481003"
             d="M 234.816,166.891 H 366.813" />
        </g>
        <g
           transform="matrix(1,0,0,-1,0,841.88977)"
           id="g7220-8-98-1"
           style="stroke:#464646;stroke-opacity:0.98481003">
          <path
             inkscape:connector-curvature="0"
             id="path7222-87-8-9"
             style="fill:none;stroke:#464646;stroke-width:10.41550636;stroke-linecap:round;stroke-linejoin:miter;stroke-miterlimit:4;stroke-dasharray:none;stroke-opacity:0.98481003"
             d="M 236.145,216.176 H 368.141" />
        </g>
        <g
           transform="matrix(1,0,0,-1,0,841.88977)"
           id="g7224-7-28-4"
           style="stroke:#464646;stroke-opacity:0.98481003">
          <path
             inkscape:connector-curvature="0"
             id="path7226-8-40-7"
             style="fill:none;stroke:#464646;stroke-width:10.41550636;stroke-linecap:round;stroke-linejoin:miter;stroke-miterlimit:4;stroke-dasharray:none;stroke-opacity:0.98481003"
             d="M 236.145,265.461 H 368.141" />
        </g>
        <path
           inkscape:connector-curvature="0"
           id="path7228-7-4-1"
           style="fill:#000000;fill-opacity:0.80392199;fill-rule:nonzero;stroke:#464646;stroke-opacity:0.98481003"
           d="m 407.766,715.714 c 0,-6.262 -5.075,-11.34 -11.336,-11.34 -6.262,0 -11.34,5.078 -11.34,11.34 0,6.262 5.078,11.34 11.34,11.34 6.261,0 11.336,-5.078 11.336,-11.34 z" />
      </g>
    </g>
    <g
       id="g7474"
       transform="matrix(1.2035788,0,0,1.295185,-26.537144,15.839687)">
      <g
         transform="matrix(0.11646296,0,0,0.10750593,75.213239,114.37191)"
         id="g6813">
        <g
           id="g6749">
          <g
             id="g6747">
            <g
               id="g6745">
              <path
                 style="fill:#1c1c1c"
                 inkscape:connector-curvature="0"
                 d="m 112.68,260 c -8.16,0 -15.824,4.344 -20,11.32 L 80.64,291.392 80,290.112 v -24.696 l 26.008,-10.408 C 114.504,251.616 120,243.512 120,234.36 c 0,-7.152 -3.472,-13.896 -9.264,-18.072 C 104.928,212.12 97.424,211 90.656,213.28 l -2.832,0.952 3.232,-6.464 C 94.288,201.296 96,194.056 96,186.832 96,174.24 85.76,164 73.168,164 c -8.704,0 -16.52,4.832 -20.424,12.624 L 32.848,216.424 16.16,298.432 16,404 22.28,436 H 0 v 56 H 120 V 436 H 96 v -53.576 l 14.656,-21.984 21.792,-57.504 C 134.808,296.64 136,290.04 136,283.32 136,270.464 125.536,260 112.68,260 Z M 95.768,228.44 c 1.92,-0.64 3.976,-0.336 5.632,0.848 1.656,1.184 2.6,3.032 2.6,5.072 0,2.568 -1.536,4.832 -3.92,5.792 L 80,248.184 v -14.44 z M 104,452 v 24 H 16 V 452 Z M 117.464,297.312 96.84,352.328 80,377.576 V 436 H 38.56 L 32,403.208 V 300.792 l 15.632,-78.168 19.424,-38.832 c 1.16,-2.344 3.504,-3.792 6.112,-3.792 3.76,0 6.832,3.072 6.832,6.832 0,4.752 -1.128,9.52 -3.256,13.792 L 64,226.112 v 67.784 l 15.36,30.72 27.04,-45.064 c 1.312,-2.192 3.72,-3.552 6.28,-3.552 4.04,0 7.32,3.28 7.32,7.32 0,4.8 -0.848,9.512 -2.536,13.992 z"
                 id="path6731" />
              <path
                 style="fill:#1c1c1c"
                 inkscape:connector-curvature="0"
                 d="M 473.76,436 479.848,405.568 480,300 463.84,218.432 443.256,176.624 C 439.36,168.832 431.536,164 422.832,164 410.24,164 400,174.24 400,186.832 c 0,7.216 1.712,14.464 4.944,20.944 l 3.224,6.448 -2.824,-0.952 c -6.76,-2.288 -14.272,-1.16 -20.08,3.008 -5.792,4.184 -9.264,10.928 -9.264,18.08 0,9.16 5.496,17.256 13.984,20.648 L 416,265.416 v 24.696 l -0.64,1.28 -12.04,-20.064 C 399.144,264.344 391.48,260 383.32,260 370.464,260 360,270.464 360,283.32 c 0,6.72 1.192,13.32 3.552,19.616 L 384.504,358.808 400,382.424 V 436 h -24 v 56 H 496 V 436 Z M 395.912,240.152 c -2.376,-0.96 -3.912,-3.224 -3.912,-5.792 0,-2.04 0.944,-3.88 2.6,-5.072 1.656,-1.192 3.696,-1.496 5.632,-0.848 L 416,233.744 v 14.44 z m 3.256,112.176 -20.624,-55.016 C 376.848,292.832 376,288.12 376,283.32 c 0,-4.04 3.28,-7.32 7.32,-7.32 2.56,0 4.968,1.36 6.28,3.552 l 27.04,45.056 15.36,-30.72 v -67.784 l -12.744,-25.48 C 417.128,196.36 416,191.584 416,186.832 c 0,-3.76 3.072,-6.832 6.832,-6.832 2.6,0 4.944,1.448 6.112,3.784 L 448.368,222.616 464,300.792 V 403.216 L 457.44,436 H 416 V 377.576 Z M 480,476 h -88 v -24 h 88 z"
                 id="path6733" />
              <path
                 style="fill:#1c1c1c;stroke:#464646;stroke-opacity:0.98481003"
                 inkscape:connector-curvature="0"
                 d="M 349.112,148 H 368 V 100 H 349.112 C 346.56,89.152 342.328,78.92 336.48,69.472 L 349.824,56.12 315.888,22.184 302.528,35.52 C 293.072,29.672 282.848,25.44 272,22.888 V 4 H 224 V 22.888 C 213.152,25.44 202.92,29.672 193.472,35.52 L 180.12,22.176 146.184,56.112 159.528,69.464 c -5.848,9.456 -10.08,19.68 -12.632,30.528 H 128 v 48 h 18.888 c 2.552,10.848 6.784,21.08 12.632,30.528 l -13.344,13.352 33.936,33.936 12.256,-12.256 c -0.096,0.808 -0.248,1.6 -0.248,2.432 0,7.12 3.76,13.328 9.368,16.88 -0.848,2.224 -1.368,4.608 -1.368,7.12 0,11.032 8.968,20 20,20 h 56 c 11.032,0 20,-8.968 20,-20 0,-2.52 -0.52,-4.904 -1.368,-7.12 5.608,-3.544 9.368,-9.76 9.368,-16.88 0,-0.736 -0.136,-1.44 -0.216,-2.152 l 11.976,11.976 33.936,-33.936 -13.344,-13.352 c 5.856,-9.44 10.08,-19.672 12.64,-30.52 z m -72.984,96 h -56 c -2.2,0 -4,-1.8 -4,-4 0,-2.2 1.8,-4 4,-4 h 56 c 2.2,0 4,1.8 4,4 0,2.2 -1.8,4 -4,4 z m 8,-24 h -8 -56 -8 c -2.2,0 -4,-1.8 -4,-4 0,-2.2 1.8,-4 4,-4 h 72 c 2.2,0 4,1.8 4,4 0,2.2 -1.8,4 -4,4 z m -28,-73.472 c 9.288,-3.312 16,-12.112 16,-22.528 0,-13.232 -10.768,-24 -24,-24 -13.232,0 -24,10.768 -24,24 0,10.416 6.712,19.216 16,22.528 V 196 h -16 v -21.24 l -3.992,-2.312 C 202.864,162.44 192.128,143.88 192.128,124 c 0,-30.872 25.128,-56 56,-56 30.872,0 56,25.128 56,56 0,19.872 -10.736,38.44 -28.008,48.448 l -3.992,2.312 V 196 h -16 z m -8,-14.528 c -4.416,0 -8,-3.584 -8,-8 0,-4.416 3.584,-8 8,-8 4.416,0 8,3.584 8,8 0,4.416 -3.584,8 -8,8 z m 86.544,6.672 c -2.216,13.2 -7.264,25.4 -14.992,36.248 l -3.92,5.504 11.44,11.456 -11.312,11.312 -11.456,-11.456 -5.512,3.928 c -1.464,1.04 -3.064,2.08 -4.776,3.112 -1.848,-1.08 -3.848,-1.944 -6.016,-2.384 v -12.6 c 19.848,-13.304 32,-35.808 32,-59.808 0,-39.704 -32.296,-72 -72,-72 -39.704,0 -72,32.296 -72,72 0,23.992 12.152,46.496 32,59.8 v 12.608 c -2.216,0.448 -4.256,1.336 -6.144,2.456 -1.744,-1.056 -3.392,-2.112 -4.896,-3.184 l -5.512,-3.928 -11.456,11.456 -11.312,-11.312 11.44,-11.456 -3.92,-5.504 C 168.6,164.072 163.552,151.872 161.336,138.672 L 160.2,132 H 144 v -16 h 16.2 l 1.128,-6.672 c 2.216,-13.2 7.264,-25.4 14.992,-36.248 l 3.92,-5.504 -11.44,-11.456 11.312,-11.312 11.456,11.44 5.504,-3.92 C 207.92,44.6 220.12,39.552 233.32,37.336 L 240,36.2 V 20 h 16 v 16.2 l 6.672,1.128 c 13.2,2.216 25.4,7.264 36.248,14.992 l 5.504,3.92 11.456,-11.44 11.312,11.312 -11.44,11.456 3.92,5.504 C 327.4,83.92 332.448,96.12 334.664,109.32 L 335.8,116 H 352 v 16 h -16.2 z"
                 id="path6735" />
              <rect
                 style="fill:#1c1c1c"
                 x="240"
                 y="276"
                 width="16"
                 height="16"
                 id="rect6737" />
              <rect
                 style="fill:#1c1c1c"
                 x="240"
                 y="308"
                 width="16"
                 height="16"
                 id="rect6739" />
              <rect
                 style="fill:#1c1c1c"
                 x="240"
                 y="340"
                 width="16"
                 height="16"
                 id="rect6741" />
              <rect
                 style="fill:#1c1c1c"
                 x="240"
                 y="372"
                 width="16"
                 height="16"
                 id="rect6743" />
            </g>
          </g>
        </g>
        <g
           id="g6751" />
        <g
           id="g6753" />
        <g
           id="g6755" />
        <g
           id="g6757" />
        <g
           id="g6759" />
        <g
           id="g6761" />
        <g
           id="g6763" />
        <g
           id="g6765" />
        <g
           id="g6767" />
        <g
           id="g6769" />
        <g
           id="g6771" />
        <g
           id="g6773" />
        <g
           id="g6775" />
        <g
           id="g6777" />
        <g
           id="g6779" />
      </g>
      <path
         transform="scale(0.26458333)"
         inkscape:connector-curvature="0"
         id="path7197"
         d="m 301.1718,608.28944 c -0.10254,-0.44196 -0.74846,-3.40417 -1.43538,-6.5827 l -1.24895,-5.77912 v -20.63703 -20.63703 l 3.44046,-15.90527 3.44046,-15.90527 4.2521,-7.85715 c 2.33866,-4.32143 4.65655,-8.21875 5.15089,-8.66071 1.12007,-1.00143 2.27025,-1.02231 3.48935,-0.0634 0.76144,0.59895 0.94102,1.0396 0.94102,2.30895 0,2.25358 -0.69443,4.0158 -3.92164,9.95177 l -2.86407,5.26803 v 14.10821 14.1082 l 3.2712,6.04303 c 1.79916,3.32367 3.38754,6.04304 3.52974,6.04304 0.14219,0 3.01918,-4.24968 6.3933,-9.44374 5.37568,-8.2752 6.28406,-9.493 7.34125,-9.84191 0.97734,-0.32255 1.41705,-0.28928 2.31513,0.17513 2.74446,1.41921 2.31555,3.59651 -3.59942,18.27205 l -4.72831,11.73132 -3.86859,5.39793 -3.86859,5.39793 v 11.65564 11.65565 h -8.92176 -8.92177 z"
         style="fill:#ffffff;fill-opacity:1;stroke:none;stroke-width:5.39932537;stroke-linecap:round;stroke-miterlimit:4;stroke-dasharray:none;stroke-opacity:0.98481003" />
      <path
         transform="scale(0.26458333)"
         inkscape:connector-curvature="0"
         id="path7219"
         d="m 300.18625,604.06328 c -1.08387,-4.31461 -1.33985,-8.81314 -1.53431,-26.96428 l -0.2334,-21.78572 3.5239,-16.20673 c 3.45172,-15.87476 3.61648,-16.37757 8.04402,-24.54757 2.48606,-4.58747 4.97456,-8.51524 5.52999,-8.72838 0.55544,-0.21314 1.52869,-0.0629 2.16279,0.33391 2.18504,1.36728 1.68545,4.15577 -2.02188,11.28527 l -3.61092,6.94411 v 13.58605 13.58604 l 2.96745,5.44508 c 1.6321,2.99479 3.29334,5.86462 3.69164,6.3774 0.54338,0.69955 2.29472,-1.48502 7.01478,-8.75 5.19833,-8.00113 6.58856,-9.68232 8.00662,-9.68232 2.46456,0 3.54396,1.62786 2.94077,4.43503 -0.2778,1.29287 -2.58767,7.56975 -5.13303,13.94862 -3.34575,8.38468 -5.69701,13.08791 -8.48665,16.97586 l -3.85872,5.37792 v 11.77415 11.77413 h -8.85107 -8.85107 z"
         style="fill:#ffffff;fill-opacity:0.99240507;stroke:#ffffff;stroke-width:0.75590551;stroke-linecap:round;stroke-miterlimit:4;stroke-dasharray:none;stroke-opacity:1" />
      <path
         transform="scale(0.26458333)"
         inkscape:connector-curvature="0"
         id="path7221"
         d="m 319.90358,530.00506 c 0,-2.63166 0.0583,-2.68721 3.96338,-3.77412 3.46386,-0.96412 4.09402,-0.9725 5,-0.0665 1.99348,1.99348 1.39376,2.57622 -5.24879,5.10019 l -3.71459,1.41143 z"
         style="fill:#ffffff;fill-opacity:0.99240507;stroke:#ffffff;stroke-width:0.53993249;stroke-linecap:round;stroke-miterlimit:4;stroke-dasharray:none;stroke-opacity:1" />
      <path
         transform="scale(0.26458333)"
         inkscape:connector-curvature="0"
         id="path7223"
         d="m 291.33215,621.02757 v -4.64286 h 19.28572 19.28571 v 4.64286 4.64285 h -19.28571 -19.28572 z"
         style="fill:#ffffff;fill-opacity:0.99240507;stroke:#ffffff;stroke-width:0.53993249;stroke-linecap:round;stroke-miterlimit:4;stroke-dasharray:none;stroke-opacity:1" />
      <path
         transform="scale(0.26458333)"
         inkscape:connector-curvature="0"
         id="path7225"
         d="m 457.04644,621.02757 v -4.64286 h 18.92857 18.92857 v 4.64286 4.64285 h -18.92857 -18.92857 z"
         style="fill:#ffffff;fill-opacity:0.99240507;stroke:#ffffff;stroke-width:0.53993249;stroke-linecap:round;stroke-miterlimit:4;stroke-dasharray:none;stroke-opacity:1" />
      <path
         transform="scale(0.26458333)"
         inkscape:connector-curvature="0"
         id="path7227"
         d="m 467.76073,597.36493 v -11.87691 l -3.6401,-4.91022 c -3.59141,-4.84454 -11.78663,-23.15322 -13.61643,-30.42003 -0.89156,-3.54072 -0.049,-5.20163 2.63888,-5.20163 1.31646,0 2.85388,1.88348 7.87114,9.64286 3.42931,5.30357 6.43054,9.63969 6.66938,9.63582 0.23885,-0.004 1.96105,-2.8613 3.82713,-6.34983 l 3.39285,-6.34278 v -13.63259 -13.63259 l -3.57143,-6.68415 c -3.68916,-6.90449 -4.32197,-9.69607 -2.53427,-11.17972 1.99223,-1.65341 3.63788,0.0248 8.06985,8.22959 4.36978,8.08965 4.53964,8.6126 8.03571,24.73912 l 3.57157,16.47478 0.007,19.37117 c 0.006,17.19425 -0.16767,20.19395 -1.5478,26.6926 l -1.55488,7.32143 h -8.80934 -8.80933 z"
         style="fill:#ffffff;fill-opacity:0.99240507;stroke:#ffffff;stroke-width:0.53993249;stroke-linecap:round;stroke-miterlimit:4;stroke-dasharray:none;stroke-opacity:1" />
      <path
         transform="scale(0.26458333)"
         inkscape:connector-curvature="0"
         id="path7229"
         d="m 462.17065,530.87745 c -4.80335,-1.91563 -6.10714,-3.43603 -4.16456,-4.85647 0.94754,-0.69286 1.99593,-0.64761 5.11605,0.22083 3.88424,1.08113 3.9243,1.12024 3.9243,3.83187 0,1.50678 -0.0804,2.70951 -0.17857,2.67273 -0.0982,-0.0368 -2.21196,-0.87782 -4.69722,-1.86896 z"
         style="fill:#ffffff;fill-opacity:0.99240507;stroke:#ffffff;stroke-width:0.53993249;stroke-linecap:round;stroke-miterlimit:4;stroke-dasharray:none;stroke-opacity:1" />
      <path
         transform="scale(0.26458333)"
         inkscape:connector-curvature="0"
         id="path7231"
         d="m 380.02497,530.41238 c -0.3832,-0.58485 -0.3832,-0.67785 0,-1.26269 l 0.41368,-0.63135 h 12.98185 c 11.46497,0 13.02822,0.0464 13.3787,0.39685 0.50685,0.50685 0.50685,1.22483 0,1.73169 -0.35048,0.35047 -1.91373,0.39684 -13.3787,0.39684 h -12.98185 z"
         style="fill:#ffffff;fill-opacity:0.99240507;stroke:#ffffff;stroke-width:0.19089496;stroke-linecap:round;stroke-miterlimit:4;stroke-dasharray:none;stroke-opacity:1" />
      <path
         transform="scale(0.26458333)"
         inkscape:connector-curvature="0"
         id="path7233"
         d="m 376.79926,520.92387 c -0.79651,-0.62654 -0.83737,-1.0724 -0.16033,-1.74944 0.4946,-0.4946 0.84179,-0.50508 16.7376,-0.50508 14.45707,0 16.29548,0.0441 16.8082,0.40323 0.76443,0.53543 0.65347,1.61441 -0.21077,2.04944 -0.48717,0.24523 -4.27114,0.31866 -16.57032,0.32153 -15.74548,0.004 -15.94706,-0.003 -16.60438,-0.51968 z"
         style="fill:#ffffff;fill-opacity:0.99240507;stroke:#ffffff;stroke-width:0.19089496;stroke-linecap:round;stroke-miterlimit:4;stroke-dasharray:none;stroke-opacity:1" />
      <path
         transform="scale(0.26458333)"
         inkscape:connector-curvature="0"
         id="path7235"
         d="m 361.44383,512.43702 c -1.15707,-1.07649 -2.13695,-2.03243 -2.17751,-2.12431 -0.0406,-0.0919 1.0257,-1.18718 2.36945,-2.43402 l 2.44319,-2.26698 -1.2647,-1.61554 c -3.91402,-4.99976 -6.19456,-9.99302 -7.28341,-15.94707 l -0.45029,-2.46224 h -3.48922 -3.48922 v -2.90419 -2.90419 h 3.48977 3.48978 l 0.43579,-2.46225 c 0.95152,-5.37613 3.2378,-10.58493 6.62303,-15.08915 l 1.89799,-2.52538 -2.47547,-2.3202 -2.47548,-2.32019 2.12991,-1.97296 c 1.17145,-1.08512 2.2165,-1.97295 2.32234,-1.97295 0.10583,0 1.27162,0.99631 2.59064,2.21402 l 2.39823,2.21401 1.80039,-1.16467 c 5.58952,-3.61584 10.47395,-5.57241 16.28515,-6.52339 1.38896,-0.2273 2.78107,-0.46967 3.09359,-0.5386 0.55364,-0.12212 0.56821,-0.20941 0.56821,-3.40352 v -3.27818 h 3.15673 3.15672 v 3.27818 c 0,3.19805 0.0139,3.28093 0.56821,3.39023 0.31252,0.0616 1.90362,0.35006 3.53579,0.64098 5.48712,0.97803 10.64406,3.03561 15.43482,6.15838 l 2.20916,1.44001 2.39791,-2.21373 c 1.31885,-1.21754 2.4845,-2.21372 2.59033,-2.21372 0.10583,0 1.15088,0.88783 2.32233,1.97295 l 2.12991,1.97296 -2.47547,2.32019 -2.47548,2.3202 1.898,2.52538 c 3.38522,4.50422 5.6715,9.71302 6.62302,15.08915 l 0.4358,2.46225 h 3.48977 3.48977 v 2.90419 2.90419 h -3.48462 -3.48462 l -0.45048,2.46224 c -1.08384,5.924 -3.38275,10.95282 -7.28704,15.94023 l -1.25933,1.60869 2.43804,2.27315 c 1.34092,1.25024 2.40475,2.35442 2.36407,2.45373 -0.0407,0.0993 -1.01568,1.05778 -2.16666,2.1299 l -2.0927,1.94932 -2.51744,-2.32297 -2.51746,-2.32297 -1.7033,1.13119 c -2.74516,1.8231 -2.70851,1.81096 -3.98924,1.32184 l -1.12334,-0.42901 v -2.32313 -2.32314 l 2.23851,-1.67162 c 7.45902,-5.57006 11.67749,-13.79677 11.67406,-22.76628 -0.002,-4.86315 -0.92197,-8.63395 -3.15746,-12.94005 -1.52969,-2.94654 -3.19245,-5.11165 -5.91638,-7.70383 -4.53936,-4.31978 -9.6184,-6.92359 -16.20294,-8.30656 -3.47011,-0.72883 -9.3797,-0.79081 -12.74402,-0.13365 -10.43455,2.03818 -18.80863,8.20837 -23.12926,17.04211 -4.5118,9.2246 -3.41401,20.17369 2.87331,28.65771 1.81816,2.4534 4.53332,5.1151 6.79238,6.65865 l 1.71139,1.16934 v 2.29526 2.29526 l -1.26101,0.44787 c -1.43258,0.50881 -1.36006,0.53159 -4.09958,-1.28777 l -1.69879,-1.12818 -2.5109,2.31504 -2.5109,2.31505 z"
         style="fill:#ffffff;fill-opacity:0.99240507;stroke:#ffffff;stroke-width:0.19089496;stroke-linecap:round;stroke-miterlimit:4;stroke-dasharray:none;stroke-opacity:1" />
      <path
         transform="scale(0.26458333)"
         inkscape:connector-curvature="0"
         id="path7237"
         d="m 391.76543,485.00922 c -1.76954,-1.19119 -1.91152,-3.07087 -0.33641,-4.45383 1.92424,-1.68951 5.16042,-0.47072 5.16042,1.94347 0,1.19931 -0.5991,2.19762 -1.6054,2.67514 -1.19823,0.56859 -2.20579,0.51701 -3.21861,-0.16478 z"
         style="fill:#ffffff;fill-opacity:0.99240507;stroke:#ffffff;stroke-width:0.19089496;stroke-linecap:round;stroke-miterlimit:4;stroke-dasharray:none;stroke-opacity:1" />
      <path
         transform="scale(0.26458333)"
         inkscape:connector-curvature="0"
         id="path7239"
         d="m 383.20492,507.33566 v -4.26263 l -2.18592,-1.22685 c -5.67444,-3.18477 -9.82785,-8.50407 -11.2167,-14.36529 -2.74429,-11.58149 4.63072,-22.98148 17.10772,-26.44438 1.69941,-0.47165 2.63302,-0.54904 6.64897,-0.55112 4.37575,-0.002 4.81605,0.0415 6.94479,0.68987 10.0132,3.04995 16.62066,10.81913 17.21756,20.24472 0.53202,8.40112 -4.25704,16.40213 -12.48247,20.85428 l -1.57836,0.85431 v 4.23486 4.23485 h -3.15673 -3.15672 l 0.0104,-9.78585 0.0104,-9.78585 1.31547,-0.61434 c 1.93418,-0.90329 4.25995,-3.33042 4.94299,-5.15841 1.71391,-4.58692 0.13214,-9.29242 -4.00069,-11.90136 -1.9531,-1.23294 -3.92724,-1.70466 -6.6979,-1.60048 -2.19349,0.0825 -2.74852,0.19979 -4.22328,0.89265 -2.25931,1.06146 -4.0376,2.7628 -5.0597,4.84075 -0.75778,1.54059 -0.81855,1.8519 -0.81855,4.19339 0,2.28535 0.0715,2.6754 0.74123,4.0445 0.90726,1.85463 2.88035,3.83373 4.63787,4.65199 l 1.31317,0.61138 v 9.80582 9.80581 h -3.15673 -3.15673 z"
         style="fill:#ffffff;fill-opacity:0.99240507;stroke:#ffffff;stroke-width:0.19089496;stroke-linecap:round;stroke-miterlimit:4;stroke-dasharray:none;stroke-opacity:1" />
    </g>
    <g
       id="g7180-6-31-3-1"
       transform="matrix(0.11022577,0,0,-0.10738184,65.956968,311.80166)"
       style="stroke:#464646;stroke-opacity:0.98481003">
      <g
         style="fill:#ffffff;fill-opacity:0.99497483;stroke:#464646;stroke-opacity:0.98481003"
         transform="matrix(1,0,0,-1,0,841.88977)"
         id="g7182-95-8-6-8">
        <path
           inkscape:connector-curvature="0"
           id="path7184-0-06-0-6"
           style="fill:#ffffff;fill-opacity:0.99497483;stroke:#464646;stroke-width:11.33858299;stroke-linecap:butt;stroke-linejoin:round;stroke-miterlimit:4;stroke-dasharray:none;stroke-opacity:0.98481003"
           d="M 32.469,156.809 H 565.082 V 622.688 H 32.469 Z" />
      </g>
      <g
         transform="matrix(1,0,0,-1,0,841.88977)"
         id="g7186-2-1-5-0"
         style="stroke:#464646;stroke-opacity:0.98481003">
        <path
           inkscape:connector-curvature="0"
           id="path7188-8-4-3-7"
           style="fill:none;stroke:#464646;stroke-width:10.41550636;stroke-linecap:round;stroke-linejoin:miter;stroke-miterlimit:4;stroke-dasharray:none;stroke-opacity:0.98481003"
           d="M 385.285,209.746 H 517.277" />
      </g>
      <g
         transform="matrix(1,0,0,-1,0,841.88977)"
         id="g7190-8-8-5-6"
         style="stroke:#464646;stroke-opacity:0.98481003">
        <path
           inkscape:connector-curvature="0"
           id="path7192-0-7-9-4"
           style="fill:none;stroke:#464646;stroke-width:10.41550636;stroke-linecap:round;stroke-linejoin:miter;stroke-miterlimit:4;stroke-dasharray:none;stroke-opacity:0.98481003"
           d="M 386.613,259.031 H 518.605" />
      </g>
      <g
         transform="matrix(1,0,0,-1,0,841.88977)"
         id="g7194-0-2-2-1"
         style="stroke:#464646;stroke-opacity:0.98481003">
        <path
           inkscape:connector-curvature="0"
           id="path7196-4-0-3-8"
           style="fill:none;stroke:#464646;stroke-width:10.41550636;stroke-linecap:round;stroke-linejoin:miter;stroke-miterlimit:4;stroke-dasharray:none;stroke-opacity:0.98481003"
           d="M 386.613,308.316 H 518.605" />
      </g>
      <g
         transform="matrix(1,0,0,-1,0,841.88977)"
         id="g7198-6-9-1-8"
         style="stroke:#464646;stroke-opacity:0.98481003">
        <path
           inkscape:connector-curvature="0"
           id="path7200-1-1-3-1"
           style="fill:none;stroke:#464646;stroke-width:10.41550636;stroke-linecap:round;stroke-linejoin:miter;stroke-miterlimit:4;stroke-dasharray:none;stroke-opacity:0.98481003"
           d="M 76.91,211.891 H 208.906" />
      </g>
      <g
         transform="matrix(1,0,0,-1,0,841.88977)"
         id="g7202-9-4-9-2"
         style="stroke:#464646;stroke-opacity:0.98481003">
        <path
           inkscape:connector-curvature="0"
           id="path7204-4-11-7-8"
           style="fill:none;stroke:#464646;stroke-width:10.41550636;stroke-linecap:round;stroke-linejoin:miter;stroke-miterlimit:4;stroke-dasharray:none;stroke-opacity:0.98481003"
           d="M 78.238,261.176 H 210.234" />
      </g>
      <g
         transform="matrix(1,0,0,-1,0,841.88977)"
         id="g7206-8-33-4-8"
         style="stroke:#464646;stroke-opacity:0.98481003">
        <path
           inkscape:connector-curvature="0"
           id="path7208-05-6-8-4"
           style="fill:none;stroke:#464646;stroke-width:10.41550636;stroke-linecap:round;stroke-linejoin:miter;stroke-miterlimit:4;stroke-dasharray:none;stroke-opacity:0.98481003"
           d="M 78.238,310.461 H 210.234" />
      </g>
      <path
         inkscape:connector-curvature="0"
         id="path7210-4-8-1-2"
         style="fill:#000000;fill-opacity:0.80392199;fill-rule:nonzero;stroke:#464646;stroke-opacity:0.98481003"
         d="m 549.195,659.999 c 0,-6.262 -5.074,-11.336 -11.34,-11.336 -6.261,0 -11.335,5.074 -11.335,11.336 0,6.262 5.074,11.34 11.335,11.34 6.266,0 11.34,-5.078 11.34,-11.34 z" />
      <g
         transform="matrix(1,0,0,-1,0,841.88977)"
         id="g7212-0-52-2-8"
         style="stroke:#464646;stroke-opacity:0.98481003">
        <path
           inkscape:connector-curvature="0"
           id="path7214-0-51-3-8"
           style="fill:#ffffff;fill-opacity:1;fill-rule:nonzero;stroke:#464646;stroke-width:11.33858299;stroke-linecap:butt;stroke-linejoin:round;stroke-miterlimit:4;stroke-dasharray:none;stroke-opacity:0.98481003"
           d="m 176.785,100.461 h 246.43 v 570 h -246.43 z" />
      </g>
      <g
         transform="matrix(1,0,0,-1,0,841.88977)"
         id="g7216-7-8-2-9"
         style="stroke:#464646;stroke-opacity:0.98481003">
        <path
           inkscape:connector-curvature="0"
           id="path7218-32-2-9-7"
           style="fill:none;stroke:#464646;stroke-width:10.41550636;stroke-linecap:round;stroke-linejoin:miter;stroke-miterlimit:4;stroke-dasharray:none;stroke-opacity:0.98481003"
           d="M 234.816,166.891 H 366.813" />
      </g>
      <g
         transform="matrix(1,0,0,-1,0,841.88977)"
         id="g7220-8-98-1-1"
         style="stroke:#464646;stroke-opacity:0.98481003">
        <path
           inkscape:connector-curvature="0"
           id="path7222-87-8-9-4"
           style="fill:none;stroke:#464646;stroke-width:10.41550636;stroke-linecap:round;stroke-linejoin:miter;stroke-miterlimit:4;stroke-dasharray:none;stroke-opacity:0.98481003"
           d="M 236.145,216.176 H 368.141" />
      </g>
      <g
         transform="matrix(1,0,0,-1,0,841.88977)"
         id="g7224-7-28-4-3"
         style="stroke:#464646;stroke-opacity:0.98481003">
        <path
           inkscape:connector-curvature="0"
           id="path7226-8-40-7-8"
           style="fill:none;stroke:#464646;stroke-width:10.41550636;stroke-linecap:round;stroke-linejoin:miter;stroke-miterlimit:4;stroke-dasharray:none;stroke-opacity:0.98481003"
           d="M 236.145,265.461 H 368.141" />
      </g>
      <path
         inkscape:connector-curvature="0"
         id="path7228-7-4-1-7"
         style="fill:#000000;fill-opacity:0.80392199;fill-rule:nonzero;stroke:#464646;stroke-opacity:0.98481003"
         d="m 407.766,715.714 c 0,-6.262 -5.075,-11.34 -11.336,-11.34 -6.262,0 -11.34,5.078 -11.34,11.34 0,6.262 5.078,11.34 11.34,11.34 6.261,0 11.336,-5.078 11.336,-11.34 z" />
    </g>
    <g
       id="g7180-6-31-3-5"
       transform="matrix(0.11022577,0,0,-0.10738184,135.98159,246.5879)"
       style="stroke:#464646;stroke-opacity:0.98481003">
      <g
         style="fill:#ffffff;fill-opacity:0.99497483;stroke:#464646;stroke-opacity:0.98481003"
         transform="matrix(1,0,0,-1,0,841.88977)"
         id="g7182-95-8-6-9">
        <path
           inkscape:connector-curvature="0"
           id="path7184-0-06-0-0"
           style="fill:#ffffff;fill-opacity:0.99497483;stroke:#464646;stroke-width:11.33858299;stroke-linecap:butt;stroke-linejoin:round;stroke-miterlimit:4;stroke-dasharray:none;stroke-opacity:0.98481003"
           d="M 32.469,156.809 H 565.082 V 622.688 H 32.469 Z" />
      </g>
      <g
         transform="matrix(1,0,0,-1,0,841.88977)"
         id="g7186-2-1-5-1"
         style="stroke:#464646;stroke-opacity:0.98481003">
        <path
           inkscape:connector-curvature="0"
           id="path7188-8-4-3-9"
           style="fill:none;stroke:#464646;stroke-width:10.41550636;stroke-linecap:round;stroke-linejoin:miter;stroke-miterlimit:4;stroke-dasharray:none;stroke-opacity:0.98481003"
           d="M 385.285,209.746 H 517.277" />
      </g>
      <g
         transform="matrix(1,0,0,-1,0,841.88977)"
         id="g7190-8-8-5-61"
         style="stroke:#464646;stroke-opacity:0.98481003">
        <path
           inkscape:connector-curvature="0"
           id="path7192-0-7-9-3"
           style="fill:none;stroke:#464646;stroke-width:10.41550636;stroke-linecap:round;stroke-linejoin:miter;stroke-miterlimit:4;stroke-dasharray:none;stroke-opacity:0.98481003"
           d="M 386.613,259.031 H 518.605" />
      </g>
      <g
         transform="matrix(1,0,0,-1,0,841.88977)"
         id="g7194-0-2-2-5"
         style="stroke:#464646;stroke-opacity:0.98481003">
        <path
           inkscape:connector-curvature="0"
           id="path7196-4-0-3-5"
           style="fill:none;stroke:#464646;stroke-width:10.41550636;stroke-linecap:round;stroke-linejoin:miter;stroke-miterlimit:4;stroke-dasharray:none;stroke-opacity:0.98481003"
           d="M 386.613,308.316 H 518.605" />
      </g>
      <g
         transform="matrix(1,0,0,-1,0,841.88977)"
         id="g7198-6-9-1-4"
         style="stroke:#464646;stroke-opacity:0.98481003">
        <path
           inkscape:connector-curvature="0"
           id="path7200-1-1-3-3"
           style="fill:none;stroke:#464646;stroke-width:10.41550636;stroke-linecap:round;stroke-linejoin:miter;stroke-miterlimit:4;stroke-dasharray:none;stroke-opacity:0.98481003"
           d="M 76.91,211.891 H 208.906" />
      </g>
      <g
         transform="matrix(1,0,0,-1,0,841.88977)"
         id="g7202-9-4-9-6"
         style="stroke:#464646;stroke-opacity:0.98481003">
        <path
           inkscape:connector-curvature="0"
           id="path7204-4-11-7-4"
           style="fill:none;stroke:#464646;stroke-width:10.41550636;stroke-linecap:round;stroke-linejoin:miter;stroke-miterlimit:4;stroke-dasharray:none;stroke-opacity:0.98481003"
           d="M 78.238,261.176 H 210.234" />
      </g>
      <g
         transform="matrix(1,0,0,-1,0,841.88977)"
         id="g7206-8-33-4-7"
         style="stroke:#464646;stroke-opacity:0.98481003">
        <path
           inkscape:connector-curvature="0"
           id="path7208-05-6-8-0"
           style="fill:none;stroke:#464646;stroke-width:10.41550636;stroke-linecap:round;stroke-linejoin:miter;stroke-miterlimit:4;stroke-dasharray:none;stroke-opacity:0.98481003"
           d="M 78.238,310.461 H 210.234" />
      </g>
      <path
         inkscape:connector-curvature="0"
         id="path7210-4-8-1-9"
         style="fill:#000000;fill-opacity:0.80392199;fill-rule:nonzero;stroke:#464646;stroke-opacity:0.98481003"
         d="m 549.195,659.999 c 0,-6.262 -5.074,-11.336 -11.34,-11.336 -6.261,0 -11.335,5.074 -11.335,11.336 0,6.262 5.074,11.34 11.335,11.34 6.266,0 11.34,-5.078 11.34,-11.34 z" />
      <g
         transform="matrix(1,0,0,-1,0,841.88977)"
         id="g7212-0-52-2-5"
         style="stroke:#464646;stroke-opacity:0.98481003">
        <path
           inkscape:connector-curvature="0"
           id="path7214-0-51-3-0"
           style="fill:#ffffff;fill-opacity:1;fill-rule:nonzero;stroke:#464646;stroke-width:11.33858299;stroke-linecap:butt;stroke-linejoin:round;stroke-miterlimit:4;stroke-dasharray:none;stroke-opacity:0.98481003"
           d="m 176.785,100.461 h 246.43 v 570 h -246.43 z" />
      </g>
      <g
         transform="matrix(1,0,0,-1,0,841.88977)"
         id="g7216-7-8-2-94"
         style="stroke:#464646;stroke-opacity:0.98481003">
        <path
           inkscape:connector-curvature="0"
           id="path7218-32-2-9-5"
           style="fill:none;stroke:#464646;stroke-width:10.41550636;stroke-linecap:round;stroke-linejoin:miter;stroke-miterlimit:4;stroke-dasharray:none;stroke-opacity:0.98481003"
           d="M 234.816,166.891 H 366.813" />
      </g>
      <g
         transform="matrix(1,0,0,-1,0,841.88977)"
         id="g7220-8-98-1-7"
         style="stroke:#464646;stroke-opacity:0.98481003">
        <path
           inkscape:connector-curvature="0"
           id="path7222-87-8-9-3"
           style="fill:none;stroke:#464646;stroke-width:10.41550636;stroke-linecap:round;stroke-linejoin:miter;stroke-miterlimit:4;stroke-dasharray:none;stroke-opacity:0.98481003"
           d="M 236.145,216.176 H 368.141" />
      </g>
      <g
         transform="matrix(1,0,0,-1,0,841.88977)"
         id="g7224-7-28-4-8"
         style="stroke:#464646;stroke-opacity:0.98481003">
        <path
           inkscape:connector-curvature="0"
           id="path7226-8-40-7-5"
           style="fill:none;stroke:#464646;stroke-width:10.41550636;stroke-linecap:round;stroke-linejoin:miter;stroke-miterlimit:4;stroke-dasharray:none;stroke-opacity:0.98481003"
           d="M 236.145,265.461 H 368.141" />
      </g>
      <path
         inkscape:connector-curvature="0"
         id="path7228-7-4-1-76"
         style="fill:#000000;fill-opacity:0.80392199;fill-rule:nonzero;stroke:#464646;stroke-opacity:0.98481003"
         d="m 407.766,715.714 c 0,-6.262 -5.075,-11.34 -11.336,-11.34 -6.262,0 -11.34,5.078 -11.34,11.34 0,6.262 5.078,11.34 11.34,11.34 6.261,0 11.336,-5.078 11.336,-11.34 z" />
    </g>
    <g
       id="g7180-6-31-3-9"
       transform="matrix(0.11022577,0,0,-0.10738184,-1.3949547,244.98428)"
       style="stroke:#464646;stroke-opacity:0.98481003">
      <g
         style="fill:#ffffff;fill-opacity:0.99497483;stroke:#464646;stroke-opacity:0.98481003"
         transform="matrix(1,0,0,-1,0,841.88977)"
         id="g7182-95-8-6-0">
        <path
           inkscape:connector-curvature="0"
           id="path7184-0-06-0-2"
           style="fill:#ffffff;fill-opacity:0.99497483;stroke:#464646;stroke-width:11.33858299;stroke-linecap:butt;stroke-linejoin:round;stroke-miterlimit:4;stroke-dasharray:none;stroke-opacity:0.98481003"
           d="M 32.469,156.809 H 565.082 V 622.688 H 32.469 Z" />
      </g>
      <g
         transform="matrix(1,0,0,-1,0,841.88977)"
         id="g7186-2-1-5-6"
         style="stroke:#464646;stroke-opacity:0.98481003">
        <path
           inkscape:connector-curvature="0"
           id="path7188-8-4-3-2"
           style="fill:none;stroke:#464646;stroke-width:10.41550636;stroke-linecap:round;stroke-linejoin:miter;stroke-miterlimit:4;stroke-dasharray:none;stroke-opacity:0.98481003"
           d="M 385.285,209.746 H 517.277" />
      </g>
      <g
         transform="matrix(1,0,0,-1,0,841.88977)"
         id="g7190-8-8-5-1"
         style="stroke:#464646;stroke-opacity:0.98481003">
        <path
           inkscape:connector-curvature="0"
           id="path7192-0-7-9-2"
           style="fill:none;stroke:#464646;stroke-width:10.41550636;stroke-linecap:round;stroke-linejoin:miter;stroke-miterlimit:4;stroke-dasharray:none;stroke-opacity:0.98481003"
           d="M 386.613,259.031 H 518.605" />
      </g>
      <g
         transform="matrix(1,0,0,-1,0,841.88977)"
         id="g7194-0-2-2-2"
         style="stroke:#464646;stroke-opacity:0.98481003">
        <path
           inkscape:connector-curvature="0"
           id="path7196-4-0-3-1"
           style="fill:none;stroke:#464646;stroke-width:10.41550636;stroke-linecap:round;stroke-linejoin:miter;stroke-miterlimit:4;stroke-dasharray:none;stroke-opacity:0.98481003"
           d="M 386.613,308.316 H 518.605" />
      </g>
      <g
         transform="matrix(1,0,0,-1,0,841.88977)"
         id="g7198-6-9-1-5"
         style="stroke:#464646;stroke-opacity:0.98481003">
        <path
           inkscape:connector-curvature="0"
           id="path7200-1-1-3-9"
           style="fill:none;stroke:#464646;stroke-width:10.41550636;stroke-linecap:round;stroke-linejoin:miter;stroke-miterlimit:4;stroke-dasharray:none;stroke-opacity:0.98481003"
           d="M 76.91,211.891 H 208.906" />
      </g>
      <g
         transform="matrix(1,0,0,-1,0,841.88977)"
         id="g7202-9-4-9-9"
         style="stroke:#464646;stroke-opacity:0.98481003">
        <path
           inkscape:connector-curvature="0"
           id="path7204-4-11-7-89"
           style="fill:none;stroke:#464646;stroke-width:10.41550636;stroke-linecap:round;stroke-linejoin:miter;stroke-miterlimit:4;stroke-dasharray:none;stroke-opacity:0.98481003"
           d="M 78.238,261.176 H 210.234" />
      </g>
      <g
         transform="matrix(1,0,0,-1,0,841.88977)"
         id="g7206-8-33-4-2"
         style="stroke:#464646;stroke-opacity:0.98481003">
        <path
           inkscape:connector-curvature="0"
           id="path7208-05-6-8-07"
           style="fill:none;stroke:#464646;stroke-width:10.41550636;stroke-linecap:round;stroke-linejoin:miter;stroke-miterlimit:4;stroke-dasharray:none;stroke-opacity:0.98481003"
           d="M 78.238,310.461 H 210.234" />
      </g>
      <path
         inkscape:connector-curvature="0"
         id="path7210-4-8-1-4"
         style="fill:#000000;fill-opacity:0.80392199;fill-rule:nonzero;stroke:#464646;stroke-opacity:0.98481003"
         d="m 549.195,659.999 c 0,-6.262 -5.074,-11.336 -11.34,-11.336 -6.261,0 -11.335,5.074 -11.335,11.336 0,6.262 5.074,11.34 11.335,11.34 6.266,0 11.34,-5.078 11.34,-11.34 z" />
      <g
         transform="matrix(1,0,0,-1,0,841.88977)"
         id="g7212-0-52-2-9"
         style="stroke:#464646;stroke-opacity:0.98481003">
        <path
           inkscape:connector-curvature="0"
           id="path7214-0-51-3-9"
           style="fill:#ffffff;fill-opacity:1;fill-rule:nonzero;stroke:#464646;stroke-width:11.33858299;stroke-linecap:butt;stroke-linejoin:round;stroke-miterlimit:4;stroke-dasharray:none;stroke-opacity:0.98481003"
           d="m 176.785,100.461 h 246.43 v 570 h -246.43 z" />
      </g>
      <g
         transform="matrix(1,0,0,-1,0,841.88977)"
         id="g7216-7-8-2-3"
         style="stroke:#464646;stroke-opacity:0.98481003">
        <path
           inkscape:connector-curvature="0"
           id="path7218-32-2-9-4"
           style="fill:none;stroke:#464646;stroke-width:10.41550636;stroke-linecap:round;stroke-linejoin:miter;stroke-miterlimit:4;stroke-dasharray:none;stroke-opacity:0.98481003"
           d="M 234.816,166.891 H 366.813" />
      </g>
      <g
         transform="matrix(1,0,0,-1,0,841.88977)"
         id="g7220-8-98-1-5"
         style="stroke:#464646;stroke-opacity:0.98481003">
        <path
           inkscape:connector-curvature="0"
           id="path7222-87-8-9-5"
           style="fill:none;stroke:#464646;stroke-width:10.41550636;stroke-linecap:round;stroke-linejoin:miter;stroke-miterlimit:4;stroke-dasharray:none;stroke-opacity:0.98481003"
           d="M 236.145,216.176 H 368.141" />
      </g>
      <g
         transform="matrix(1,0,0,-1,0,841.88977)"
         id="g7224-7-28-4-32"
         style="stroke:#464646;stroke-opacity:0.98481003">
        <path
           inkscape:connector-curvature="0"
           id="path7226-8-40-7-4"
           style="fill:none;stroke:#464646;stroke-width:10.41550636;stroke-linecap:round;stroke-linejoin:miter;stroke-miterlimit:4;stroke-dasharray:none;stroke-opacity:0.98481003"
           d="M 236.145,265.461 H 368.141" />
      </g>
      <path
         inkscape:connector-curvature="0"
         id="path7228-7-4-1-75"
         style="fill:#000000;fill-opacity:0.80392199;fill-rule:nonzero;stroke:#464646;stroke-opacity:0.98481003"
         d="m 407.766,715.714 c 0,-6.262 -5.075,-11.34 -11.336,-11.34 -6.262,0 -11.34,5.078 -11.34,11.34 0,6.262 5.078,11.34 11.34,11.34 6.261,0 11.336,-5.078 11.336,-11.34 z" />
    </g>
  </g>
</svg>
